<svg id="Layer_1" data-name="Layer 1" xmlns="http://www.w3.org/2000/svg" viewBox="0 0 21 27"><defs><style>.cls-1{fill:#0072ff;}.cls-2{fill:#fff;}</style></defs><title>ghost_blue</title><path class="cls-1" d="M22,26.87a9.25,9.25,0,0,0,.11-1.37c0-2.59-.94-4.62-2.13-4.62-1,0-1.82,1.41-2.06,3.48a1.27,1.27,0,0,0-.94-.48h0c-.31-1.83-1.08-3-2-3s-1.67,1.17-2,3h0a1.27,1.27,0,0,0-.94.48C11.82,22.29,11,20.88,10,20.88c-1.19,0-2.12,2-2.12,4.62A8.67,8.67,0,0,0,8,26.71a3.93,3.93,0,0,1-2.83-3.77V6.06A3.92,3.92,0,0,1,7.35,2.53l.05,0,0-.06C7.76,1,8.37.13,9,.13S10.11.84,10.47,2l0,.09h10l0-.09C20.89.84,21.44.13,22,.13s1.24.89,1.58,2.32l0,.06,0,0a3.93,3.93,0,0,1,2.23,3.53V22.94A3.94,3.94,0,0,1,22,26.87Z" transform="translate(-5)"/><path d="M22,.25c.56,0,1.13.88,1.46,2.23l0,.11.11.06a3.78,3.78,0,0,1,2.15,3.41V22.94a3.82,3.82,0,0,1-3.58,3.8,10.46,10.46,0,0,0,.08-1.24c0-2.66-1-4.75-2.25-4.75-1,0-1.87,1.35-2.15,3.34a1.37,1.37,0,0,0-.76-.34c-.33-1.83-1.14-3-2.09-3s-1.76,1.17-2.09,3a1.37,1.37,0,0,0-.76.34c-.28-2-1.13-3.34-2.15-3.34-1.26,0-2.25,2.09-2.25,4.75a9.29,9.29,0,0,0,.06,1,3.81,3.81,0,0,1-2.56-3.59V6.06A3.78,3.78,0,0,1,7.4,2.65l.11-.06,0-.11C7.87,1.13,8.44.25,9,.25s1,.7,1.35,1.82l.06.18H20.59l.06-.18C21,1,21.51.25,22,.25M22,0c-.65,0-1.23.79-1.59,2H10.59C10.23.79,9.65,0,9,0S7.65,1,7.29,2.42A4.06,4.06,0,0,0,5,6.06V22.94a4.05,4.05,0,0,0,3.11,3.93A8.54,8.54,0,0,1,8,25.5C8,23,8.9,21,10,21s1.79,1.58,2,3.67A1.37,1.37,0,0,1,13,24a.53.53,0,0,1,.12,0c.27-1.76,1-3,1.88-3s1.61,1.27,1.88,3A.53.53,0,0,1,17,24a1.37,1.37,0,0,1,1,.67c.17-2.09,1-3.67,2-3.67s2,2,2,4.5a10.13,10.13,0,0,1-.12,1.5h.06A4.06,4.06,0,0,0,26,22.94V6.06a4.06,4.06,0,0,0-2.29-3.64C23.35,1,22.73,0,22,0Z" transform="translate(-5)"/><circle class="cls-2" cx="5.5" cy="6.5" r="1.38"/><path d="M10.5,5.25A1.25,1.25,0,1,1,9.25,6.5,1.25,1.25,0,0,1,10.5,5.25m0-.25A1.5,1.5,0,1,0,12,6.5,1.5,1.5,0,0,0,10.5,5Z" transform="translate(-5)"/><circle class="cls-2" cx="14.5" cy="6.5" r="1.38"/><path d="M19.5,5.25A1.25,1.25,0,1,1,18.25,6.5,1.25,1.25,0,0,1,19.5,5.25m0-.25A1.5,1.5,0,1,0,21,6.5,1.5,1.5,0,0,0,19.5,5Z" transform="translate(-5)"/></svg>