<svg id="Layer_1" data-name="Layer 1" xmlns="http://www.w3.org/2000/svg" viewBox="0 0 21.78 25"><defs><style>.cls-1{fill:#f6ff2e;}.cls-2{fill:#fff;}</style></defs><title>pacman_right</title><path class="cls-1" d="M15,27.88A12.15,12.15,0,0,1,3.13,15.5,12.14,12.14,0,0,1,15,3.13,11.67,11.67,0,0,1,23.62,7L14,15.26l10.57,7.49A11.76,11.76,0,0,1,15,27.88Z" transform="translate(-3 -3)"/><path d="M15,3.25A11.38,11.38,0,0,1,23.44,7l-9.36,8.06-.24.21.26.18,10.34,7.33a11.63,11.63,0,0,1-9.44,5A12,12,0,0,1,3.25,15.5,12,12,0,0,1,15,3.25M15,3A12.26,12.26,0,0,0,3,15.5,12.26,12.26,0,0,0,15,28a11.83,11.83,0,0,0,9.78-5.28L14.24,15.25,23.8,7A11.73,11.73,0,0,0,15,3Z" transform="translate(-3 -3)"/><circle class="cls-2" cx="12.5" cy="4.5" r="1.38"/><path d="M15.5,6.25A1.25,1.25,0,1,1,14.25,7.5,1.25,1.25,0,0,1,15.5,6.25m0-.25A1.5,1.5,0,1,0,17,7.5,1.5,1.5,0,0,0,15.5,6Z" transform="translate(-3 -3)"/></svg>