<svg id="Layer_1" data-name="Layer 1" xmlns="http://www.w3.org/2000/svg" viewBox="0 0 21.54 24.99"><defs><style>.cls-1{fill:#f6ff2e;}.cls-2{fill:#fff;}</style></defs><title>pacman_left</title><path class="cls-1" d="M12.87,28a11.73,11.73,0,0,1-9-4.27l9.84-8.43L3.43,7.93a11.68,11.68,0,0,1,8.23-4.65c.35,0,.7,0,1.05,0a12.26,12.26,0,0,1,11.9,11.29,12.52,12.52,0,0,1-2.67,9,11.52,11.52,0,0,1-8,4.37A9.16,9.16,0,0,1,12.87,28Z" transform="translate(-3.25 -3.1)"/><path d="M12.71,3.35h0A12.14,12.14,0,0,1,24.49,14.53,12,12,0,0,1,13.9,27.8c-.34,0-.69.05-1,.05a11.64,11.64,0,0,1-8.82-4.14l9.63-8.24.24-.21-.26-.18-10-7.17A11.35,11.35,0,0,1,11.67,3.4c.35,0,.7,0,1,0m0-.25c-.35,0-.7,0-1.06,0A11.75,11.75,0,0,0,3.25,8l10.27,7.32L3.7,23.68a11.9,11.9,0,0,0,9.17,4.42c.35,0,.7,0,1.06-.05A12.26,12.26,0,0,0,24.74,14.51a12.32,12.32,0,0,0-12-11.41Z" transform="translate(-3.25 -3.1)"/><path class="cls-2" d="M11.56,9.05a1.36,1.36,0,0,1-1.37-1.24,1.4,1.4,0,0,1,.31-1,1.38,1.38,0,0,1,.94-.49h.12a1.36,1.36,0,0,1,1.37,1.25,1.4,1.4,0,0,1-.31,1,1.38,1.38,0,0,1-.93.49Z" transform="translate(-3.25 -3.1)"/><path d="M11.56,6.43a1.25,1.25,0,0,1,.11,2.49h-.11a1.25,1.25,0,0,1-.11-2.5h.11m0-.25h-.14a1.5,1.5,0,0,0,.14,3h.14a1.5,1.5,0,0,0-.14-3Z" transform="translate(-3.25 -3.1)"/></svg>