<svg id="Layer_1" data-name="Layer 1" xmlns="http://www.w3.org/2000/svg" viewBox="0 0 25 21.39"><defs><style>.cls-1{fill:#f6ff2e;}.cls-2{fill:#fff;}</style></defs><title>pacman_up</title><path class="cls-1" d="M14,26.27l-.68,0a12.53,12.53,0,0,1-8.56-3.93,11.51,11.51,0,0,1,1.16-17l7.73,10,8-10.16A11.75,11.75,0,0,1,26.31,15,12.1,12.1,0,0,1,14,26.27Z" transform="translate(-1.45 -5)"/><path d="M21.72,5.35A11.63,11.63,0,0,1,26.18,15,12,12,0,0,1,14,26.14h-.68a12.46,12.46,0,0,1-8.47-3.9,11.39,11.39,0,0,1,1-16.71l7.55,9.77.19.25.2-.25,7.87-9.94m0-.35-8,10.14L6,5.16a11.74,11.74,0,0,0-4.48,8.58A12.27,12.27,0,0,0,13.32,26.38H14A12.22,12.22,0,0,0,26.43,15.05,11.85,11.85,0,0,0,21.68,5Z" transform="translate(-1.45 -5)"/><path class="cls-2" d="M5.91,14.85A1.38,1.38,0,0,1,6,12.1a1.39,1.39,0,0,1,1.37,1.45A1.37,1.37,0,0,1,6,14.85Z" transform="translate(-1.45 -5)"/><path d="M6,12.22h.06A1.25,1.25,0,0,1,6,14.72H5.92A1.25,1.25,0,0,1,6,12.22M6,12a1.5,1.5,0,0,0-.08,3H6a1.5,1.5,0,0,0,.08-3Z" transform="translate(-1.45 -5)"/></svg>