<svg id="Layer_1" data-name="Layer 1" xmlns="http://www.w3.org/2000/svg" viewBox="0 0 24.99 21.73"><defs><style>.cls-1{fill:#f6ff2e;}.cls-2{fill:#fff;}</style></defs><title>pacman_down</title><path class="cls-1" d="M6.58,26.15A11.55,11.55,0,0,1,4.35,9.27a12.87,12.87,0,0,1,9.8-4.55A12.05,12.05,0,0,1,26.31,15.17a11.75,11.75,0,0,1-4,10.14l-8.67-9.63Z" transform="translate(-1.53 -4.59)"/><path d="M14.15,4.84a11.94,11.94,0,0,1,12,10.34,11.64,11.64,0,0,1-3.84,10l-8.48-9.42-.22-.24-.18.27L6.55,26A11.39,11.39,0,0,1,1.85,18,12,12,0,0,1,12.66,4.93a12.54,12.54,0,0,1,1.49-.09m0-.25a13,13,0,0,0-1.52.09,12.26,12.26,0,0,0-11,13.37,11.74,11.74,0,0,0,5,8.27l7.06-10.44,8.65,9.6a11.87,11.87,0,0,0,4.11-10.32A12.19,12.19,0,0,0,14.15,4.59Z" transform="translate(-1.53 -4.59)"/><path class="cls-2" d="M6.13,19.4A1.37,1.37,0,0,1,6,16.66h.16A1.37,1.37,0,0,1,7.5,17.86a1.39,1.39,0,0,1-1.21,1.53Z" transform="translate(-1.53 -4.59)"/><path d="M6.13,16.77a1.25,1.25,0,0,1,1.24,1.11,1.22,1.22,0,0,1-.26.92,1.21,1.21,0,0,1-.83.46H6.13a1.24,1.24,0,0,1-1.24-1.1,1.22,1.22,0,0,1,.26-.92A1.26,1.26,0,0,1,6,16.78h.14m0-.25H6a1.5,1.5,0,0,0,.17,3H6.3a1.49,1.49,0,0,0,1.32-1.66,1.51,1.51,0,0,0-1.49-1.33Z" transform="translate(-1.53 -4.59)"/></svg>